<?xml version="1.0" encoding="utf-8"?>
<!-- Generator: Adobe Illustrator 25.2.0, SVG Export Plug-In . SVG Version: 6.00 Build 0)  -->
<svg version="1.1" id="Layer_1" xmlns="http://www.w3.org/2000/svg" xmlns:xlink="http://www.w3.org/1999/xlink" x="0px" y="0px"
	 viewBox="0 0 166.3 149.5" style="enable-background:new 0 0 166.3 149.5;" xml:space="preserve">
<style type="text/css">
	.st0{fill:none;stroke:#FFFFFF;stroke-width:2.08;stroke-linecap:round;stroke-linejoin:round;}
</style>
<g id="Layer_2_1_">
	<g id="Layer_1-2">
		<path class="st0" d="M28.2,116.4c0.6,1.9,1.9,3.5,3.6,4.6 M31.8,121c-0.8,2.9-1.3,6-1.4,9c0.4,0.8,0.8,1.6,1.3,2.4
			c1.1,1.8,2.2,3.5,3.5,5.1c3.9,4.9,7.5,7.3,10.9,7.3c1.5,0.2,3,0.5,4.4,1.1c1.1,0.4,2.2,0.7,3.2,1.1l0.1-0.3
			c0.1-0.2,0.3-0.3,0.5-0.3c-0.2-1-0.6-2-1.3-2.7c-1.3-1.5-2.3-2.6-3-3.5c-2.9-3.5-4.3-6.4-4.3-8.9c0-1.7,0.8-3.9,2.5-6.8
			 M17.7,142.1c0.1-0.3,0.1-0.5,0.2-0.8 M28.2,116.4c0.8-1.1,1.7-2.3,2.6-3.6c0.7-0.9,3.1-4.5,7.4-10.9l0.9-1.3
			c1.5-3.1,3.1-6.2,4.9-9.2v2.8c-1.8,2-3.4,4.2-4.9,6.5c-2.4,5-4.4,10.3-6,15.6c-0.5,1.7-1,3.3-1.3,4.8c1.9,1.2,4,2,6.2,2.5
			c3.3,0.6,6.6,1,9.9,1h0.2 M151.7,75.8v0.4 M152.2,76.3l-0.5-0.2v0.1C151.8,76.3,152,76.3,152.2,76.3z M151.7,75.8
			c0.1-0.2,0.3-0.4,0.4-0.5l0,0 M153.4,74.5c-0.2,0.1-0.5,0.2-0.7,0.3c0.1,0.1,0.2,0.1,0.2,0.2c0.2,0.2,0.3,0.3,0.4,0.5
			c-0.4,0-0.7-0.1-1.1-0.3l-0.2-0.1l0,0l0.3,0.3c0.1,0.2,0.2,0.4,0.3,0.5c-0.2,0.1-0.4,0.1-0.6,0.2l1.2,0.4 M152.2,75.3
			c0.2-0.1,0.4-0.3,0.6-0.4c-0.2-0.1-0.4-0.3-0.6-0.3c-0.1,0.2-0.2,0.4-0.4,0.5L152.2,75.3L152.2,75.3z M153.4,76.7h-1.7v-0.5
			c-0.1-0.1-0.1-0.2-0.1-0.3c0-0.1,0-0.1,0.1-0.2v-1.2c0.1,0,0.3,0,0.4,0c0.1-0.2,0.2-0.4,0.2-0.6h1.7l-0.5,0.5l1.1,1.1L153.4,76.7
			l0.5-0.1c1.1-1.1,1.6-1.9,1.6-2.4c0-0.8-0.2-1.5-0.6-2.2c-0.4-0.9-1-1.8-1.7-2.6c-1.6-1.9-3.9-3-6.3-3.1c0.9-1.2,1.9-2.3,3-3.3
			c1.6-1.8,2.4-3.3,2.4-4.3v-0.5c-3.4,1-10.2,3.2-20.3,6.5c-9,2.9-13.5,4.4-13.7,4.4c-5.5-0.7-11.2-1.4-16.9-2.1
			c-11.5-1.4-18.1-2.2-19.8-2.2c-11.9-0.2-20.1-0.7-24.5-1.5c-1.8-0.4-3.1-0.7-4-0.8c-2.1-0.3-4.2-0.4-6.3-0.3
			c-1.9,0-3.2,0.3-3.7,0.8c-0.2,0.2-0.5,0.4-0.8,0.5c-0.7,0.2-1.4,0.3-2,0.2c0.1-0.3,0.2-0.6,0.3-0.9c0.2-0.5,0.3-1,0.3-1.5
			c0-0.1-0.6-1.4-1.7-3.9c-1.3-3-2.7-5.9-4-8.8c-4.2-8.7-7.2-14.2-9-16.5c-4.7-5.7-8.1-12.3-10.2-19.3c-0.4-1.6-1-3.9-1.6-7
			C14,4.1,13.6,2.5,13,1c-0.9,0.6-1.7,1.4-2.2,2.4c-0.8,1.4-1.1,3.1-1.1,4.7c0.1,6.5,1.2,12.9,3.2,19c1.9,6,4.2,11.8,6.9,17.4
			c1.7,3.6,4,8.3,6.9,14.1c2.1,4.4,3.1,7.4,3.1,9.1c-0.2,1.9-0.8,3.7-1.9,5.3c-1.7,2.7-3,4.8-4,6.5c-3.8,6.8-5.5,14.5-5,22.2
			c0.1,3.4-1.7,6.7-5.6,9.9c-2,1.5-3.4,2.6-4.2,3.3c-1.3,1.1-2,1.9-2.2,2.6c-0.9,4.5-2.2,9-3.7,13.3c-1.5,4.7-2.3,7.7-2.3,9
			c0,0.1,2.2,1,6.7,2.8s6.7,2.6,6.9,2.6c0.4,0,0.8-0.2,0.9-0.6c0.2-0.4,0.5-0.6,0.9-0.6c0.5,0,0.9-0.3,1-0.8c0-0.4,0.1-0.8,0.2-1.2
			l-0.1,0.2c-0.2,0.4-0.5,0.6-0.8,0.6c0-1.1,0.2-2.2,0.6-3.2c-1.3-0.6-2.2-1.7-2.8-3c-0.7-1.4-1-3-1-4.6c0-0.6,0.2-1.2,0.5-1.7
			c0.2-0.4,0.8-1.3,1.7-2.7c0.1-0.3,0.3-0.7,0.4-1.1c-0.1,0-0.3,0-0.4,0c-1-0.1-1.9-0.4-2.7-1c-1.1-0.7-1.6-1.4-1.6-2
			c0-2.7,0.6-4.5,1.8-5.4c0.5-0.3,1-0.5,1.6-0.6l1.4-0.2c0.5,1.4,0.7,2.3,0.8,2.4c0.2,0.7,0.3,1.5,0.4,2.2c-0.1,1.1-0.4,2.3-0.8,3.3
			c-0.1,0.4-0.3,0.9-0.4,1.3c1.9-0.2,4.2-1.6,6.8-4.2c1.9-1.9,3.6-4,5.2-6.1c-0.3-1-0.5-2.1-0.5-3.2c-0.1-4.4,1-8.7,3.1-12.6
			c1.8-3.4,4.3-6.3,7.3-8.6c2.6-2.1,5.5-3.8,8.6-5c2.3-1,4.7-1.5,7.1-1.6c3.4,0,5.8,1.6,7.1,4.9c0.8,2.1,1.1,4.3,1.1,6.5
			c-0.1,3.4-1,6.8-2.5,9.8c-1.6,3.3-3.5,6.4-5.6,9.4c-3.3,4.8-5.1,7.6-5.6,8.4l0,0c1.5,0,4.8,0.1,10,0.1c11.4,0,19.3-0.6,23.8-1.8
			c1.5-0.3,2.9-1,4.1-1.9c0.7-0.6,1.2-1.4,1.4-2.2l0.6-0.3c0.4-0.2,0.7-0.5,1.1-0.8c0.3,0.4,0.4,0.8,0.5,1.2
			c0.1,0.6,0.1,1.2,0.1,1.8c0.1,2.8-0.1,5.6-0.4,8.4c-0.5,2-1.1,4-1.8,6c-0.5,1.6-1.2,3.4-1.9,5.4c-0.2,0.4-0.3,0.9-0.3,1.4
			c0.6,1.2,1.3,2.4,2.2,3.5c1.6,2.2,2.7,3.3,3.3,3.3c0.4,0,1.5-0.1,3.3-0.3s2.8-0.3,3.3-0.3c1,0,1.8-0.7,2.2-1.6
			c0.3-0.5,0.5-1.1,0.5-1.7c0-0.1-0.6-1.5-1.9-4.3s-1.9-4.3-1.9-4.4c0-1.4,0.8-3.7,2.5-6.8c0.2-0.4,1.9-3.4,5.1-9
			c-0.7,0-1.8-0.1-3.2-0.2l-2.8-0.3c-2.4-0.7-4.7-1.8-6.7-3.4c-1.7-1.3-2.6-2.4-2.6-3.2c0-3.9,2.4-8.1,7.1-12.5
			c1.7-1.6,3.6-3.1,5.6-4.3c1.2-0.9,2.6-1.5,4.1-1.7c1.4,0.2,2.7,0.8,3.8,1.6c1.8,1.1,2.8,2,2.8,2.7c-0.2,3.5-1,6.9-2.5,10.1
			c-1.6,3.6-3.4,7.2-5.4,10.6l-0.3,0.5h0.6c0.4,0,2.2-0.2,5.3-0.5c3.1-0.4,4.8-0.5,5.3-0.5c0.1,0,2,1.2,5.8,3.6
			c4.4,2.8,8.7,5.6,12.7,8.4c12.5,8.5,19.5,14.1,21,16.8c0.6,0.5,1.1-0.5,1.6-3.2l0.5,0.5h8.7c-2.3-1.1-4.5-2.3-6.6-3.7
			c-4.3-2.6-8.1-6-11.3-9.9c-1.5-1.9-3.1-7-5-15.1c-1.7-7.7-2.6-13.3-2.6-16.8c0-2.7,0.3-5.4,0.8-8c0.5-2.9,0.8-4.5,0.8-4.8
			c0.1,0,1,0.1,2.8,0.3s2.9,0.3,3.4,0.3c4.4,0,7.8-1,10.3-2.9c1.1-0.8,2-1.9,2.6-3.1c-1.7,0.7-2.8,0.4-3.5-1
			c-0.2-0.6-0.4-1.2-0.5-1.8c-0.1-0.5-0.2-1.1-0.4-1.6h-0.5"/>
	</g>
</g>
</svg>
