<?xml version="1.0" encoding="utf-8"?>
<!-- Generator: Adobe Illustrator 25.2.0, SVG Export Plug-In . SVG Version: 6.00 Build 0)  -->
<svg version="1.1" id="Layer_1" xmlns="http://www.w3.org/2000/svg" xmlns:xlink="http://www.w3.org/1999/xlink" x="0px" y="0px"
	 viewBox="0 0 176.2 136.9" style="enable-background:new 0 0 176.2 136.9;" xml:space="preserve">
<style type="text/css">
	.st0{fill:none;stroke:#FFFFFF;stroke-width:1.98;stroke-linecap:round;stroke-linejoin:round;}
</style>
<g id="Layer_2_1_">
	<g id="Layer_1-2">
		<path class="st0" d="M54.3,107.4c-0.6,0.9-1.3,1.8-2,2.6c-0.8,0.9-1.8,1.6-2.8,2.2c-1.1,0.7-1.7,1.1-1.7,1.1
			c0,1.9,3.1,5.4,9.3,10.3l6.4,5.1c1.9,1.6,2.9,2.7,2.9,3.3c0,0.6-0.1,1.2-0.3,1.7c-0.1,0.4-0.3,0.8-0.3,1.2h-1.3v-3.7
			c-0.3,0-0.6,0.1-0.9,0.2c-0.8,0.3-1.6,0.8-2.3,1.4c-0.2-0.4-1.9-1.3-5-2.7c-3.4-1.5-6.6-3.1-9.8-5c-9.3-5.8-14.4-12.9-15.3-21.3
			c0.4,0,7,1,19.7,3.1L54.3,107.4z M94.4,107.8c0.6,0.2,1.3,0.4,2,0.6h4.8c0.7,0,1.3,0,1.9,0c-1.3,1.6-2.9,3.3-4.7,5.3
			c-2.5,2.7-4.2,4.5-5.2,5.6c-3.9,4.3-6.8,7.3-8.4,9c-3.5,3.4-6,5.2-7.6,5.6c-0.4-1.1-0.6-2.2-0.6-3.4c0-1,0-1.7,0-1.9
			s0.1-0.7,0.3-0.8c1.3-0.2,2.7-0.3,4-0.2c0-0.2-0.2-0.5-0.7-0.8c-0.7-0.5-1.1-0.8-1.2-0.8c3.3-1.3,7.1-5.2,11.4-11.6
			C92,112.3,93.3,110.1,94.4,107.8z M88.4,101.7c-0.1,0.4-0.2,0.8-0.3,1.3c0.2,0.1,0.4,0.2,0.6,0.3c0,0-0.2,0.2-0.6,0.6
			c0,0.2,0,0.3,0,0.5c0,0.6,0.9,1.3,2.7,2.2c1.2,0.5,2.4,1,3.6,1.4l0.3-0.6c0.8-1.4,1.4-2.9,1.7-4.5c0-0.6-0.9-1.2-2.6-1.8
			c-1.2-0.5-2.5-0.8-3.8-0.8C89.3,100.1,88.8,100.6,88.4,101.7z M165.5,65.3l-0.4-0.3 M165.5,65.3l-0.5-0.2 M166,65.6l-0.4-0.3l0,0
			c0,0.2-0.2,0.3-0.5,0.3c0.3,0.1,0.7,0.2,1.1,0.2C166.2,65.8,166.2,65.7,166,65.6L166,65.6z M165.1,65l0.2-0.2l0,0
			c-0.1,0-0.3,0-0.4,0 M165.1,65.7c-0.2-0.1-0.3-0.1-0.5-0.2l-0.2,0.1c0,0,0,0.1,0,0.1C164.6,65.7,164.9,65.7,165.1,65.7L165.1,65.7
			z M164,64.6c-0.3-0.1-0.6-0.2-0.9-0.3H163l-0.3,0.7l-0.1,0.2c0.5,0.3,1,0.5,1.6,0.5l0,0l0.1-0.1c0-0.1-0.1-0.2-0.1-0.3 M165,65.1
			C165,65,165,65,165,65.1l-0.2-0.2l0,0 M164.2,64.5c0.1,0.2,0.3,0.3,0.6,0.3C164.6,64.7,164.4,64.6,164.2,64.5L164.2,64.5z
			 M164.2,64.7c0,0.1,0,0.2,0.1,0.4c0,0.1,0,0.2,0,0.2l0,0l0.2,0.1c0.2-0.1,0.3-0.2,0.5-0.4C164.8,65,164.5,64.9,164.2,64.7
			L164.2,64.7z M164.2,64.5L164.2,64.5L164.2,64.5C164.2,64.5,164.2,64.5,164.2,64.5L164.2,64.5z M164,64.6l0.2,0.1v-0.2L164,64.6
			c-0.1,0.1-0.2,0.1-0.3,0.2l0.6,0.5 M156.6,55H156c0.5-1.2,1.3-2.2,2.2-3.1l0.3-0.5c0.8-1.3,1.4-2.7,2-4.1v-0.5
			c-1,0.2-3.5,0.8-7.3,1.9c-6.2,1.8-10.1,2.9-11.8,3.3c-11.3,3.1-19.6,4.6-24.8,4.6c-2.1,0-14.2-1.1-36.1-3.4S46,49.8,42.9,49.8
			c-0.8,0-1.4,0-1.7,0c-0.6,0-1.2,0.1-1.7,0.2c-1.1,0.2-3.7,1-7.7,2.3v0.1c0,0.5-0.2,1-0.6,1.3l-0.6,0.3h-0.6v-1l1.9-0.6
			c0-6.8-4.6-16.7-13.7-29.8c-2.7-3.8-6-8.3-10-13.4C4.5,4.6,2.6,2,2.3,1.5L1.6,1c0,0.1-0.1,0.6-0.3,1.4C1.1,3.1,1,3.7,1,4.4
			c0,12.8,3.4,25.3,9.9,36.3c1.2,2,3.4,5.5,6.8,10.4c2,3,3.1,5,3.1,6.1c0,0-0.6,1.2-1.8,3.5c-1.5,2.8-2.8,5.5-4,8.1
			c-3.8,8.4-5.8,14.5-5.8,18.3c0.3,2.9,0.8,5.8,1.6,8.6c1.1,4.6,1.6,7.1,1.6,7.4c0,0.9-0.7,2.6-2.2,5.1S8.1,112,8.1,112
			c0.3,1.2,0.7,2.4,1.1,3.5c1,2.6,2.2,5.2,3.7,7.6c4.5,7.5,9.9,11.8,16.2,12.8v-2.6c-1.6-2.5-3.4-4.9-5.4-7.2
			c-0.5-0.5-0.9-1.1-1.2-1.7c-0.3-0.8-0.4-1.7-0.4-2.5c0-1.1,0.5-2.1,1.3-2.8c0.9-0.8,1.9-1.6,2.9-2.2c1.1-0.7,2-1.6,2.9-2.6
			c0.8-1.1,1.3-2.4,1.3-3.8c-0.2-2.2-0.5-4.4-1-6.5c-0.7-3.3-1-6.7-1-10.1c0-4.5,0.7-7.9,2-10.3c1.9-3.5,5.3-5.2,10.2-5.2
			c4.4,0,8.7,1.7,12.8,5.2c1.6,1.3,3,2.8,4.2,4.5c0.9,1.2,1.5,2.5,1.6,4c-0.1,3.1-0.7,6.1-1.8,9c-0.8,2.3-1.9,4.4-3.2,6.4
			c10.5,1.7,16.4,2.6,17.8,2.6c4.2,0.1,8.4-0.9,12-3c1.1-0.7,2.1-1.4,3-2.3c0.4-0.4,0.8-0.7,1-0.9c0-0.3,0-0.6,0.1-0.8
			c-0.3-0.1-0.5-0.2-0.8-0.2c-0.3,0-0.5-0.1-0.8-0.2c-0.3-0.2-0.4-1.7-0.4-4.2c0-5.9,2.2-10.3,6.4-13.2c1.5-1,3.1-1.7,4.8-2.2
			c0.9-0.3,1.9-0.5,2.8-0.5c0.8,0,2.4,1,4.8,3.1c2.1,1.8,4,3.9,5.5,6.2v3.3c0,2.7-2.1,6.7-6.4,12c-0.3,0.4-0.7,0.8-1,1.2
			c1.5,0,3.1-0.2,4.6-0.5c1.2-0.2,3.6-0.8,7.4-1.6h5.1c-0.8,3.4-0.1,6.9,1.8,9.8c2.1,3.3,4.9,6.1,8.2,8.3c3.6,2.5,7.5,4.5,11.6,6
			c3.8,1.5,7.7,2.4,11.7,2.9l0.1-0.2c0.1-0.2,0.3-0.3,0.6-0.3c-0.5-0.8-1.2-1.5-2.1-2c-0.8-0.5-1.2-0.5-1.2-0.1
			c0-0.5,0.1-0.6,0.4-0.5c0.3,0.2,0.6,0.4,0.9,0.5c-0.6-0.7-1.4-1.2-2.3-1.4c-0.3-0.1-1.4-0.4-3.2-0.9c-2.9-0.8-4.8-1.9-5.4-3.3
			c-0.9-2.5-1.6-5.1-1.9-7.8c-0.7-3.5-1.1-7.1-1.2-10.7c0.3-1.5,0.7-3.1,1.3-4.5c0.5-1.5,1-3,1.3-4.5c0-0.5-0.1-0.9-0.3-1.3l0,0
			l-0.4,0.2c-1.3,0.9-2.9,1.4-4.4,1.5c-0.7,0-1.3-0.2-1.9-0.5l-0.7-0.5c0.1-0.9,0.6-1.7,1.3-2.2c0.4-0.4,0.8-0.7,1.3-1h4.5
			c0,0.8,0.1,1.6,0.3,2.3c1.8-1.2,3.5-2.7,5.1-4.3c4.3-4.5,7.7-9.9,10-15.7c4.4,1.5,9.3,1.3,13.5-0.7c1.6-0.7,3.1-1.7,4.4-2.9
			c1-0.8,1.7-1.9,2.1-3.1c-1.7-1-3.5-1.9-5.4-2.6l-2.3-1c-0.5,0.1-0.9,0.1-1.4,0.1h-0.1c-0.2,0-0.4,0-0.6,0
			c-0.2,0.1-0.4,0.2-0.6,0.2c-0.2,0-0.4-0.1-0.5-0.3h-0.2l-0.5,0.3l-1.4,0.4c0-0.4,0.1-0.8,0.3-1.2c-0.1-0.1-0.2-0.2-0.3-0.3
			c-0.4-0.4-0.4-0.7,0.1-0.6c0.2,0,0.4,0,0.6,0.1h0.6c0.2,0,0.4,0.1,0.6,0.2c0.1,0,0.3-0.1,0.4-0.1c0.3-0.1,0.6-0.1,0.9-0.1
			c-0.1,0.2-0.2,0.4-0.3,0.5c0.1,0,0.9,0.3,2.3,1l0,0c0.1,0,0.5-0.2,1.2-0.4v-2.7c-1.2-1.9-2.7-3.7-4.4-5.2c-0.5-0.4-1-0.9-1.4-1.4
			c-0.3-0.4-0.5-0.9-0.5-1.4c0.3-0.9,0.8-1.7,1.4-2.4c1.7-2.4,2.9-4.3,3.7-5.6c-1.9,0-4.1,0.9-6.6,2.8c-1,0.7-1.9,1.5-2.8,2.4
			C157.6,52.9,157.1,53.9,156.6,55z"/>
	</g>
</g>
</svg>
