<?xml version="1.0" encoding="utf-8"?>
<!-- Generator: Adobe Illustrator 25.2.0, SVG Export Plug-In . SVG Version: 6.00 Build 0)  -->
<svg version="1.1" id="Layer_1" xmlns="http://www.w3.org/2000/svg" xmlns:xlink="http://www.w3.org/1999/xlink" x="0px" y="0px"
	 viewBox="0 0 153.2 171.4" style="enable-background:new 0 0 153.2 171.4;" xml:space="preserve">
<style type="text/css">
	.st0{fill:none;stroke:#FFFFFF;stroke-width:2.32;stroke-linecap:round;stroke-linejoin:round;}
</style>
<g id="Layer_2_1_">
	<g id="Layer_1-2">
		<path class="st0" d="M112,132.4c-0.6-1.4-1.1-2.9-1.7-4.5v-10.3c0.1,0,0.2,0,0.3-0.1c0.2-0.1,0.3-0.4,0.3-0.6
			c1.4,0.6,2.4,1.7,3,3.1c0.8,1.8,1.2,3.7,1.2,5.7C115.1,128.8,114.1,131,112,132.4z M138,90c-1.2-0.2-2.4-0.3-3.6-0.3
			c-3.9,0-7.3,2-10.3,6.1c-1.1,1.5-2,3.1-2.7,4.8c-0.5,1.1-0.8,2.2-0.9,3.3c-0.1,2,0.4,4,1.4,5.7c1,1.5,2.4,2.7,4,3.5
			c2.1,1,4.4,1.7,6.6,2.1c1.5,0.4,4.6,0.9,9.2,1.7c-0.4,0.4-0.9,0.6-1.5,0.6c-0.7,0.1-1.5,0.1-2.2,0.1c-3.9,0-6.6-0.4-8.1-1.3
			c-0.4-0.3-0.9-0.6-1.4-0.9c-0.6-0.3-1.3-0.4-2-0.3c-0.3,1.1-0.9,3.4-1.8,6.8c-0.6,2-1,4-1.2,6c0,3.6,4.1,10.3,12.4,20.2
			c1.7,2,4.7,5.5,9.1,10.4c1.9,2,3.6,4.1,5.2,6.4h-5.5c-3.6-2.1-7.2-4.1-11-5.8c-2.9-1.3-5.8-2.9-8.4-4.8c-2.9-2.5-5.4-5.4-7.3-8.8
			c-2.4-4.2-4.4-8.5-6.1-13c-0.1,0.1-0.3,0.2-0.4,0.3c-1.9,1.1-4.8,1.6-8.7,1.6c-0.9,0-4.6-0.2-11.2-0.6c-1.8-0.1-3.4-0.1-4.8-0.2
			 M141.9,103.7c-0.1,0-0.1,0-0.2,0 M141.7,103.7L141.7,103.7 M141.8,103.7L141.8,103.7z M142.8,104L142.8,104
			c0.3,0.2,0.5,0.3,0.8,0.4h0.2 M138,90c-1.5,1.2-2.9,2.6-4.2,4.1c-1.2,1.4-1.8,2.5-1.8,3.2c0,0.6,0,1.3,0.1,1.9
			c0.2,0.2,0.8,0.3,1.8,0.2c-0.3,1.1-0.7,2.1-1.2,3.2c-0.5,1-0.9,2.1-1.2,3.2c-0.1,1.2,0.3,2.4,1.1,3.4c0.8,0.7,1.8,1.1,2.9,1.2
			c2.5,0.6,3.9,0.9,4.3,1c1.8,0.6,3.6,1.4,5.1,2.6h6.7c0-0.1,0-0.2,0.1-0.3c0.1-0.2,0.3-0.3,0.5-0.3c-1-2.3-1.7-4.7-2.2-7.2
			c-0.5-2.6-1.2-5.2-2.1-7.7c-0.8-2.3-2.2-4.4-4.1-6c0.2,0.7,0.5,1.6,0.8,2.6c0.6,2.1,1.3,4.2,2.2,6.2v3.1h-2.8
			c0.3,0.1,0.7,0.3,0.9,0.6h-0.6c-0.2,0-0.4-0.1-0.5-0.3l-0.1-0.3c-0.5,0-0.8-0.1-0.8-0.3l0,0c-0.2-0.1-0.5-0.2-0.8-0.2
			c0.1,0.1,0.2,0.2,0.3,0.3c0.1,0.3,0.1,0.6,0.1,0.8h-0.6v-1.2l-0.1-0.1c-0.4-0.1-0.8-0.3-1.1-0.5l1.1,0.5l0.2,0.1
			c0.3,0,0.7,0.1,1,0.2l0.4,0.2c0.2,0.1,0.4,0.2,0.5,0.2 M148.4,85.4c-2.4-0.7-5.8,0.8-10.2,4.4L138,90c1.9,0.3,3.8,1.1,5.4,2.2
			l0.2,0.2c-0.3-0.8-0.5-1.6-0.6-2.4c0.7-0.8,1.5-1.6,2.4-2.3c0.8-0.7,1.6-1.5,2.5-2.3L148.4,85.4z M37.3,163.4
			c0.1-0.8,0.2-1.3,0.2-1.6v1.8L37.3,163.4z M64.2,138.2c-0.8,1-1.8,1.7-3,2.1c-0.4,1.2-0.6,2.4-0.6,3.6c0,1.4,0.8,2.3,2.5,2.6
			c1.4,0.2,2.8,0.2,4.2,0.2c0,0.1,0.1,0.3,0.3,0.4c0.2,0.3,0.3,0.7,0.3,1.1c0,0.7-1.4,3-4.2,7.1c-1.5,2.1-3.3,4.7-5.5,7.8v1.2
			c1.6,0.2,3.1,0.6,4.6,1.2c1.2,0.4,2.4,0.8,3.5,1.2c0.1,0,0.7-0.3,1.8-0.9c0.8-0.4,1.6-0.7,2.4-0.9c0.5,0,1,0.1,1.4,0.4
			c0.3,0.3,0.5,0.5,0.7,0.8c0.3-0.9,0.5-1.8,0.5-2.8c0.2-1.9,0.3-3.4,0.4-4.5c0.5-4.4,1.4-7.6,2.8-9.6c3.3-4.8,5.7-8.4,7.4-10.8
			c1.3-1.9,2.3-3.5,3.1-4.8 M7.3,162.8L7.3,162.8c0,0.3,0,0.6-0.1,0.8C7.3,163.3,7.3,163,7.3,162.8z M12.7,1.2
			c0,7.1-1.1,16.4-3.3,27.7C8.3,34.5,7.1,39.8,6,44.5c-0.1,5.7,0.9,11.4,2.9,16.8c1.5,4,3.7,7.7,6.3,11c1.5,2,3.6,4.5,6.3,7.5
			c1.9,2.4,2.8,4.5,2.8,6.2c0,2.6-1,1.4-3.1,4.2c-2.6,3.4-4.9,6.7-6.9,9.6c-6.7,9.8-10,16.6-10,20.1c0,3,2,4.6,6.1,4.9
			c1.7,0.1,3.5,0,5.2-0.2c1.1-0.1,2.6-0.2,4.5-0.5v0.6c-0.9,0.2-3.8,0.6-8.6,1.4c-2,0.3-3.9,0.7-5.8,1.3c-1.4,0.4-2.5,1.3-3.3,2.5
			c-0.8,1.6-1.1,3.3-1,5c0.1,5.5,0.5,11,1.2,16.5c0.8,7.5,1.2,12.3,1.2,14.4c0.5-0.7,1-1.4,1.5-2.1c0.7-1,1-1.5,1.2-1.5
			c0.6,0,0.9,0.1,1,0.4c0.2-1.3,0.3-2.6,0.5-3.9c0.4-2.9,0.9-5.6,1.5-8c1.8-7.6,4.1-12.4,7-14.6c0.9-0.7,2.1-1.7,3.6-3.1
			c0.2-1.1,0.5-2.3,0.8-3.7c1-4.3,2.2-8.5,3.6-12.6c3.9-11.3,7.9-16.9,12-16.9c0.4,0,0.9,0,1.3,0.1l1.1,0.5v4.3
			c0.7,4.5-2.5,10.8-9.5,18.8c-2.5,2.9-5.1,5.6-7.9,8.3l-1.4,1.3c-0.3,1.3-0.5,2.7-0.5,4c0,1.4,0,2.7,0,4c0,0.6,0.1,1,0.3,1.1
			c0.3,0.1,0.7,0.2,1,0.1c0.8,0.2,1.7,0.5,2.4,1.1c-0.4,1.6-0.9,3.2-1.5,4.7c-0.6,1.5-1.1,3.1-1.5,4.7c0,0.9,2.1,3.3,6.4,7.2
			c5.2,4.8,8.5,8.1,10,10.1c0-0.4,0.2-1.8,0.6-4.2c0.2-1.1,0.3-2,0.4-2.6c-2.1-2.2-3.5-5.5-4.3-9.9c-0.7-4.4-1-8.8-0.9-13.2
			c0-4.4,1.8-9.8,5.3-16.2c1.2-2.3,2.6-4.5,4.1-6.6c0.8-1.2,1.7-2.4,2.7-3.5v7.3c-2.3,2.2-4.3,4.7-6.1,7.3c-2,2.9-2.9,5.3-2.9,7.2
			c1.9,0.9,8.8,2.5,20.8,4.8c1.5,0,3.1,0,4.6-0.1c0.2,0,0.4-0.1,0.5-0.1c0.3-1.1,0.7-2.1,1.1-3.1c1.3-3,2.9-5.8,4.8-8.4
			c4.5-6.5,10.3-12,17.1-16.1h3c0.2,0.9-0.8,4.4-3.1,10.4c-2.4,6.3-3.5,9.9-3.5,10.8c2.1-0.3,4.2-0.4,6.2-0.4c0.7-1,1.2-2.1,1.6-3.3
			c0.9-4.6,5.8-11.3,14.8-20.1c2.1-2.1,5.3-5.1,9.6-9c1.9-1.7,3.7-3.4,5.4-5.3c-1.7-1.7-8.3-3.4-19.6-4.9c-6-0.8-10.3-1.4-12.9-1.7
			c-3.1-0.4-6.2-1-9.3-1.9C68.4,84.3,62,82.2,57,80.7C48.4,78.2,41.3,77,35.7,77c-1,0.1-2,0.3-3,0.6c-1.5,0.3-2.9,0.7-4.3,1.2
			c0-0.6,0.1-2.2,0.3-4.8s0.3-4.1,0.3-4.6c0-0.3-2.3-10.2-7-29.9c-5-21.1-8-33.5-8.7-37.1L12.7,1.2z"/>
	</g>
</g>
</svg>
