<?xml version="1.0" encoding="utf-8"?>
<!-- Generator: Adobe Illustrator 25.2.0, SVG Export Plug-In . SVG Version: 6.00 Build 0)  -->
<svg version="1.1" id="Layer_1" xmlns="http://www.w3.org/2000/svg" xmlns:xlink="http://www.w3.org/1999/xlink" x="0px" y="0px"
	 viewBox="0 0 162.7 160.4" style="enable-background:new 0 0 162.7 160.4;" xml:space="preserve">
<style type="text/css">
	.st0{fill:none;stroke:#FFFFFF;stroke-width:2.23;stroke-linecap:round;stroke-linejoin:round;}
</style>
<g id="Layer_2_1_">
	<g id="Layer_1-2">
		<path class="st0" d="M51.7,121.2c-0.7,1.3-1.5,2.5-2.5,3.7c-0.8,0.9-1.6,1.8-2.6,2.8l-1.2,1.2c0,5.2,1.5,10.8,4.6,16.8
			c0.9,1.7,2.1,3.8,3.5,6.1c1.3,2.2,2.2,3.5,2.4,4c-0.4-0.4-1-1-1.7-1.8c-0.5,0.4-1,0.9-1.5,1.3c-1.2,1.2-2.3,2.5-3.2,3.9v-5.9
			c-3.8,0-7-2.5-9.5-7.4c-3-5.8-4.5-14-4.5-24.7c0-0.6,0.1-2.8,0.3-6.7c0.2-3.9,0.3-5.9,0.3-6.1c0.8,3.2,3.4,6.1,7.8,8.9
			C46.4,118.9,49,120.2,51.7,121.2z M154.9,73.5L154.9,73.5c0.3,0.1,0.6,0.3,0.8,0.4v0.7c-0.1,0-0.2,0-0.3,0.1
			c-0.2,0.1-0.3,0.3-0.3,0.5h-2.3v-1.1l1.1,0.6c0.4,0.2,0.6,0,0.6-0.6c0-0.3,0.1-0.5,0.1-0.6 M140.4,73.4c-0.6,0.3-1.3,0.5-1.9,0.6
			c-0.6,0.1-1.2,0.1-1.7,0.1c-0.7,0-1.3-0.1-2-0.3c-0.7-0.2-1.5-0.3-2.3-0.3c0.4-0.2,0.8-0.4,1.2-0.6c0.5-0.3,1.3-0.7,2.3-1.2h4.1
			c0.1,0.4,0.2,0.8,0.3,1.2C140.3,73.1,140.4,73.3,140.4,73.4c0.1,0.4,0.2,0.8,0.2,1.3h-1.7c1.3,0.1,2.5,1.1,3.8,2.8
			c1.1,1.6,1.9,3.4,2.1,5.3c1.4-1.6,2.6-3.4,3.8-5.2c1.6-2.5,2.7-3.9,3.2-4.1h4v0.4c0.2,0.1,0.4,0.1,0.6,0.1
			c0.3-1.1,0.4-2.3,0.2-3.5c-0.3-2.3-0.5-3.6-0.5-3.9c-0.1-3.6,1.5-7.4,5-11.3l0.6-1.7c-0.7-0.1-2.5,0.9-5.5,3.1
			c-2.9,2.2-4.4,3.3-4.4,3.3c-9.7-0.8-15.3-1.2-16.9-1.2c-0.2-0.3-0.2-0.6-0.1-0.9c0.1-0.3,0.2-0.7,0.2-1c0.1-1.1-0.8-2.8-2.4-5.1
			c-0.1-0.2-0.2-0.4-0.4-0.6c-0.3-0.4-0.6-0.6-0.8-0.6c0,1-0.1,2.8-0.3,5.3s-0.3,4.4-0.3,5.8c0,3-2.7,5.4-8.2,7
			c-3.6,1.1-7.4,1.7-11.1,1.8c-9-1-18.4-1.9-28.3-2.9c-19.7-1.9-31.9-2.9-36.7-2.9c-0.4,0-1.6,0.1-3.6,0.2c0.1,0.1,0.3,0.3,0.4,0.4
			c-0.9,1.4-2.4,2.3-4.1,2.3c-0.6,0-1.1-0.1-1.7-0.3l-0.6-0.3v-1.7c0.1,0,1.6-0.1,4.5-0.3l1.5-0.1c-0.9-1-1.6-2-2.4-3
			c-1.8-2.6-3.2-4.7-4.4-6.3c-3.8-5.6-8.1-11-12.7-16c-3-3.3-5.4-7-7.3-11c-1.5-2.9-3.4-7.2-5.8-12.9C7.9,10.3,6.4,6.8,5.4,5.1
			c-1.6-2.9-3-4.2-4.3-4v4.2c1.7,4.5,4.3,10.6,7.7,18.3c1.9,4.4,4.9,11,8.8,19.9C24.5,59.1,28,68.6,28,72.1c0,5.2-0.6,2.6-1.8,7.6
			c-1,4.1-1.6,8.3-1.8,12.5c0.1,4.2,0.9,8.4,2.5,12.3c0.4,1.1,1.5,3.4,3.3,6.9c-0.5,0.4-0.9,0.8-1.4,1.3c-0.4,0.5-0.9,0.9-1.3,1.3
			c-2,1.4-4.3,2.5-6.6,3.2v2.4c1.2,0.8,2.6,5.1,4.1,12.9c0.8,4.2,1.8,9.6,2.9,16.3c0.1,0,0.2,0.1,0.4,0.3s0.5,0.3,1,0.3
			c1,0,1.9-0.4,2.6-1.2c0.9-1.4,1.3-3,1.2-4.7c0-0.5-0.2-3.5-0.6-9.2c-0.4-5.7-0.6-8.7-0.6-9.2c0-4.4,0.4-8.8,1.3-13.1
			c1.2-5.8,3-8.7,5.5-8.7c4.2,0,7.7,1.2,10.3,3.5c2.7,2.6,4.2,6.2,4,9.9c-0.1,1.6-0.5,3.2-1.3,4.6c2.2,0.9,4.7,1.7,7.3,2.5
			c5.6,1.7,11.4,3,17.2,3.9c4.7,0.8,9.4,1.2,14.2,1.3c3.3-1.3,5.9-2.3,7.8-3.2l-0.2-0.3c-0.4-0.7-0.6-1.5-0.6-2.3
			c0-0.6,0.8-1.2,2.3-1.7c0.8-0.3,1.5-0.5,2.3-0.6v2.9c-1.2,0.8-2.4,1.5-3.8,2c0.3,0.5,0.9,0.9,1.5,0.9c0.6,0,1.2-0.1,1.7-0.4
			c0.3-0.1,0.6-0.5,0.6-0.8c0.2,1.8-0.4,5.6-1.8,11.4c-1.5,6.2-2.2,9.9-2.2,11.3c0.1,1,0.4,1.9,0.9,2.8c0.9,2,2.2,3.9,3.8,5.5
			c0.9-0.9,1.8-1.8,2.8-2.6c0.1,0,0.2,0,0.3,0.1c0.1,0.1,0.3,0.2,0.5,0.2c0.6,0,1.2-0.8,1.7-2.4c0.3-0.8,0.5-1.7,0.6-2.6
			c0-1-0.2-2-0.4-3c-0.3-1.3-0.7-2.5-1.3-3.6v-2.7l0.8-5.1c0.5-3.5,0.9-5.8,0.9-6.8c0.1-0.8,0.2-1.7,0.3-2.6c-0.9-1-1.6-2-2.2-2.8
			c-2.4-3-4.4-6.3-5.9-9.8c-1.7-4.1-2.6-8.4-2.5-12.8c0-0.7,0.6-1.8,1.8-3.2s2.1-2.1,2.8-2.1c1.8,0,3.4,1.8,4.7,5.3
			c1.5,4,2.3,9.4,2.3,16.3c0,0.5-0.1,1.8-0.3,4c-0.2,1.9-0.4,3.6-0.5,5.1c1.2,1.5,2.8,3.3,4.6,5.3c2.1,2.3,3.8,5,5.1,7.8
			c0.5,0.8,1,1.6,1.6,2.3c1.1,1.6,2.1,2.9,2.8,4.1c2.5,4.1,3.8,7.6,3.8,10.6c0.4-0.3,0.7-0.6,1-1c0.3-0.4,0.6-0.9,0.7-1.4
			c0.6,0.3,1.2,0.6,1.8,0.8c0.6,0.2,1.3,0.4,2,0.4c0.8,0,1.5-0.3,2-0.9c0.3-0.3,0.5-0.7,0.6-1.1c-0.2-1.4-0.6-2.8-1.1-4.1
			c-1.2-3.4-2-5.8-2.4-7.2c-2.3-7.5-3.5-15.3-3.5-23.1c-0.1-1.4-0.4-2.8-0.8-4.1c-0.2-0.5-0.3-1-0.5-1.5c-0.5,0-1.2-0.1-1.9-0.3
			l-1.5-0.3v-4c0.2,0,0.6,0.3,1.1,0.9c0.2,0.3,0.5,0.6,0.7,0.9c0.7,0.8,1.3,1.8,1.6,2.9h0.7c5.8,0,11.3-2.4,15.1-6.6
			c2-2,3.6-4.3,4.7-6.8c0-0.3-0.1-2.2-0.3-5.6s-0.3-5.8-0.3-7.2c-0.1,0-0.8,0.1-2,0.3c-0.9,0.2-1.8,0.2-2.7,0.3
			c-0.7,0-2.1-1.2-4.2-3.5c-1.4-0.2-2.8-0.5-4.1-1c-4.2-1.7-6.3-5.4-6.2-11c0-0.5,0.1-1.1,0.3-1.5l0.3-0.5c0.2,0.7,0.6,1.3,1,1.9
			c1.1,1.7,2,3,2.5,3.9c1.6,2.7,3.6,5.3,5.7,7.6l0.5,0.6l0.6,0.1c1,0.1,2,0.2,3,0.4c0.6,0.2,1.9,0.7,4,1.3s3.2,1,3.3,1
			c0.3,0,0.9-0.4,1.8-1.3c0.7-0.7,1.4-1.4,2-2.3"/>
	</g>
</g>
</svg>
