<?xml version="1.0" encoding="utf-8"?>
<!-- Generator: Adobe Illustrator 25.2.0, SVG Export Plug-In . SVG Version: 6.00 Build 0)  -->
<svg version="1.1" xmlns="http://www.w3.org/2000/svg" xmlns:xlink="http://www.w3.org/1999/xlink" x="0px" y="0px"
	 viewBox="0 0 969 1388" style="enable-background:new 0 0 969 1388;" xml:space="preserve">
<style type="text/css">
	.st0{fill:none;stroke:#FFFFFF;}
	.st1{fill:#FFFFFF;}
</style>
<g id="Layer_1">
	<rect x="13.03" y="19.08" class="st0" width="938.68" height="1345.78"/>
	<rect x="408.41" y="598.59" class="st0" width="147.92" height="147.92"/>
	<rect x="408.41" y="339.91" class="st0" width="147.92" height="147.92"/>
	<rect x="408.41" y="1065.21" class="st0" width="147.92" height="147.92"/>
	<rect x="408.41" y="806.53" class="st0" width="147.92" height="147.92"/>
	<rect x="332.69" y="49.68" class="st0" width="286.72" height="13.32"/>
	<rect x="48.78" y="87.54" class="st0" width="9.11" height="278.31"/>
	<rect x="48.78" y="432.44" class="st0" width="9.11" height="278.31"/>
	<rect x="48.78" y="750.01" class="st0" width="9.11" height="278.31"/>
	<rect x="48.78" y="1075.72" class="st0" width="9.11" height="278.31"/>
	<rect x="906.84" y="87.54" class="st0" width="9.11" height="278.31"/>
	<rect x="906.84" y="432.44" class="st0" width="9.11" height="278.31"/>
	<rect x="906.84" y="750.01" class="st0" width="9.11" height="278.31"/>
	<polygon class="st0" points="847.22,1164.32 764.99,1164.32 723.87,1235.53 764.99,1306.75 847.22,1306.75 888.34,1235.53 	"/>
</g>
<g id="Layer_2">
	<g>
		<path class="st1" d="M816.06,833.73c0.8,0.08,1.72,0,2.99-0.13c2.15-0.29,4.17-1.18,5.72-2.65c1.81-1.64,3.11-4.04,3.62-7.28
			h-0.13c-1.51,1.85-3.7,2.95-6.44,2.95c-4.92,0-8.08-3.7-8.08-8.37c0-5.17,3.74-9.72,9.34-9.72c5.59,0,9.04,4.54,9.04,11.53
			c0,6.02-2.02,10.22-4.71,12.83c-2.1,2.06-5.01,3.32-7.95,3.66c-1.35,0.21-2.52,0.25-3.41,0.21V833.73z M817.41,817.99
			c0,3.41,2.06,5.81,5.26,5.81c2.48,0,4.42-1.22,5.38-2.86c0.21-0.34,0.34-0.76,0.34-1.35c0-4.67-1.72-8.25-5.59-8.25
			C819.64,811.35,817.41,814.12,817.41,817.99z"/>
	</g>
	<g>
		<path class="st1" d="M481.51,1128.15h-0.08l-4.75,2.57l-0.72-2.82l5.97-3.2h3.16v27.34h-3.58V1128.15z"/>
	</g>
	<g>
		<path class="st1" d="M473.47,899.68v-2.27l2.9-2.82c6.98-6.65,10.14-10.18,10.18-14.3c0-2.78-1.35-5.34-5.43-5.34
			c-2.48,0-4.54,1.26-5.81,2.31l-1.18-2.61c1.89-1.6,4.59-2.78,7.74-2.78c5.89,0,8.37,4.04,8.37,7.95c0,5.05-3.66,9.13-9.42,14.68
			l-2.19,2.02v0.08h12.28v3.07H473.47z"/>
	</g>
	<g>
		<path class="st1" d="M474.35,678.81c1.05,0.67,3.49,1.73,6.06,1.73c4.75,0,6.23-3.03,6.18-5.3c-0.04-3.83-3.49-5.47-7.07-5.47
			h-2.06v-2.78h2.06c2.69,0,6.1-1.39,6.1-4.63c0-2.19-1.39-4.12-4.8-4.12c-2.19,0-4.29,0.97-5.47,1.81l-0.97-2.69
			c1.43-1.05,4.21-2.1,7.15-2.1c5.39,0,7.82,3.2,7.82,6.52c0,2.82-1.68,5.22-5.05,6.44v0.08c3.37,0.67,6.1,3.2,6.1,7.03
			c0,4.38-3.41,8.2-9.97,8.2c-3.07,0-5.76-0.97-7.11-1.85L474.35,678.81z"/>
	</g>
	<g>
		<path class="st1" d="M484.91,424.38v-7.45h-12.71v-2.44l12.2-17.46h4v17h3.83v2.9h-3.83v7.45H484.91z M484.91,414.03v-9.13
			c0-1.43,0.04-2.86,0.13-4.29h-0.13c-0.84,1.6-1.51,2.78-2.27,4.04l-6.69,9.3v0.08H484.91z"/>
	</g>
	<g>
		<path class="st1" d="M812.82,1221.32c-0.76-0.04-1.72,0-2.78,0.17c-5.8,0.97-8.88,5.22-9.51,9.72h0.13
			c1.3-1.72,3.58-3.15,6.6-3.15c4.84,0,8.25,3.49,8.25,8.83c0,5.01-3.41,9.63-9.09,9.63c-5.85,0-9.68-4.54-9.68-11.65
			c0-5.38,1.93-9.63,4.63-12.33c2.27-2.23,5.3-3.62,8.75-4.04c1.09-0.17,2.02-0.21,2.69-0.21V1221.32z M811.77,1237.09
			c0-3.91-2.23-6.27-5.64-6.27c-2.23,0-4.29,1.39-5.3,3.37c-0.25,0.42-0.42,0.97-0.42,1.64c0.08,4.5,2.15,7.83,6.02,7.83
			C809.63,1243.66,811.77,1241.01,811.77,1237.09z"/>
	</g>
	<g>
		<path class="st1" d="M489.79,93.1h-10.43l-1.05,7.03c0.63-0.08,1.22-0.17,2.23-0.17c2.1,0,4.21,0.46,5.89,1.47
			c2.15,1.22,3.91,3.58,3.91,7.03c0,5.34-4.25,9.34-10.18,9.34c-2.99,0-5.51-0.84-6.81-1.68l0.93-2.82
			c1.14,0.67,3.37,1.51,5.85,1.51c3.49,0,6.48-2.27,6.48-5.93c-0.04-3.53-2.4-6.06-7.87-6.06c-1.56,0-2.78,0.17-3.79,0.29
			l1.77-13.13h13.08V93.1z"/>
	</g>
	<g>
		<path class="st1" d="M92.18,213.31H92.1l-4.75,2.57l-0.72-2.82l5.97-3.2h3.16v27.34h-3.58V213.31z"/>
		<path class="st1" d="M106.61,232.96c1.05,0.67,3.49,1.73,6.06,1.73c4.75,0,6.23-3.03,6.18-5.3c-0.04-3.83-3.49-5.47-7.07-5.47
			h-2.06v-2.78h2.06c2.69,0,6.1-1.39,6.1-4.63c0-2.19-1.39-4.12-4.8-4.12c-2.19,0-4.29,0.97-5.47,1.81l-0.97-2.69
			c1.43-1.05,4.21-2.1,7.15-2.1c5.38,0,7.82,3.2,7.82,6.52c0,2.82-1.68,5.22-5.05,6.44v0.08c3.37,0.67,6.1,3.2,6.1,7.03
			c0,4.38-3.41,8.2-9.97,8.2c-3.07,0-5.76-0.97-7.11-1.85L106.61,232.96z"/>
	</g>
	<g>
		<path class="st1" d="M92.18,558.22H92.1l-4.75,2.57l-0.72-2.82l5.97-3.2h3.16v27.34h-3.58V558.22z"/>
		<path class="st1" d="M105.72,582.11v-2.27l2.9-2.82c6.98-6.65,10.14-10.18,10.18-14.3c0-2.78-1.35-5.34-5.43-5.34
			c-2.48,0-4.54,1.26-5.81,2.31l-1.18-2.61c1.89-1.6,4.59-2.78,7.74-2.78c5.89,0,8.37,4.04,8.37,7.95c0,5.05-3.66,9.13-9.42,14.68
			l-2.19,2.02v0.08h12.28v3.07H105.72z"/>
	</g>
	<g>
		<path class="st1" d="M92.18,888.15H92.1l-4.75,2.57l-0.72-2.82l5.97-3.2h3.16v27.34h-3.58V888.15z"/>
		<path class="st1" d="M113.76,888.15h-0.08l-4.75,2.57l-0.72-2.82l5.97-3.2h3.16v27.34h-3.58V888.15z"/>
	</g>
	<g>
		<path class="st1" d="M92.18,1191.25H92.1l-4.75,2.57l-0.72-2.82l5.97-3.2h3.16v27.34h-3.58V1191.25z"/>
		<path class="st1" d="M123.9,1201.18c0,9.3-3.45,14.43-9.51,14.43c-5.34,0-8.96-5.01-9.04-14.05c0-9.17,3.95-14.22,9.51-14.22
			C120.62,1187.33,123.9,1192.47,123.9,1201.18z M109.05,1201.6c0,7.11,2.19,11.15,5.55,11.15c3.79,0,5.6-4.42,5.6-11.4
			c0-6.73-1.73-11.15-5.55-11.15C111.4,1190.2,109.05,1194.15,109.05,1201.6z"/>
	</g>
	<g>
		<path class="st1" d="M842.31,209.86v2.44l-11.91,24.9h-3.83l11.86-24.19v-0.08h-13.38v-3.07H842.31z"/>
	</g>
	<g>
		<path class="st1" d="M824.22,564.41c0-3.45,2.06-5.89,5.43-7.32l-0.04-0.13c-3.03-1.43-4.33-3.79-4.33-6.14
			c0-4.33,3.66-7.28,8.46-7.28c5.3,0,7.95,3.32,7.95,6.73c0,2.31-1.14,4.8-4.5,6.39v0.13c3.41,1.35,5.51,3.74,5.51,7.07
			c0,4.75-4.08,7.95-9.3,7.95C827.67,571.81,824.22,568.4,824.22,564.41z M838.95,564.24c0-3.32-2.31-4.92-6.02-5.97
			c-3.2,0.93-4.92,3.03-4.92,5.64c-0.13,2.78,1.98,5.22,5.47,5.22C836.8,569.12,838.95,567.06,838.95,564.24z M828.77,550.57
			c0,2.73,2.06,4.21,5.22,5.05c2.36-0.8,4.17-2.48,4.17-4.96c0-2.19-1.3-4.46-4.63-4.46C830.45,546.19,828.77,548.21,828.77,550.57z
			"/>
	</g>
</g>
</svg>
